<?xml version="1.0" encoding="utf-8"?>
<!-- Generator: Adobe Illustrator 23.0.0, SVG Export Plug-In . SVG Version: 6.00 Build 0)  -->
<svg version="1.1" id="Capa_1" xmlns="http://www.w3.org/2000/svg" xmlns:xlink="http://www.w3.org/1999/xlink" x="0px" y="0px"
	 viewBox="0 0 500 564" style="enable-background:new 0 0 500 564;" xml:space="preserve">
<style type="text/css">
	.st0{fill:#C5D7D8;}
	.st1{fill:#10726D;}
	.st2{fill:#12A09C;}
	.st3{fill:#0E6660;}
	.st4{fill:#B2D4D8;}
	.st5{fill:#FFFFFF;}
	.st6{fill:#10B6B6;}
	.st7{fill:#182D32;}
	.st8{fill:#00191E;}
	.st9{fill:#125773;}
	.st10{fill:#FFC2B0;}
	.st11{fill:#0BA0B0;}
	.st12{fill:#EA9C92;}
	.st13{fill:#0D635A;}
	.st14{fill:#E8A200;}
	.st15{fill:#0E4F48;}
	.st16{fill:#5793CE;}
	.st17{fill:#D4ECFF;}
	.st18{fill:#0F5B54;}
</style>
<title>Business_SVG</title>
<path class="st0" d="M415.6,401.3L202.1,278c-6-3.5-16.6-3-23.6,1L33.1,362.9c-7,4-7.7,10.1-1.7,13.6l73.4,42.4
	c-5.8,0.5-11.4,2-15.9,4.6c-11.2,6.5-11.2,16.9,0,23.4c11.2,6.5,29.3,6.5,40.5,0c4.5-2.6,7.1-5.8,8-9.2l17.3,10
	c-3.6,0.8-7,2.1-9.9,3.8c-11.4,6.6-11.4,17.3,0,23.9c11.4,6.6,29.9,6.6,41.3,0c2.9-1.7,5.1-3.6,6.5-5.7l52.2,30.2
	c6,3.5,16.6,3,23.6-1l145.4-83.9C420.8,410.8,421.6,404.7,415.6,401.3z"/>
<g>
	<path class="st1" d="M473.5,147.7L251.1,19.3c-2.6-1.5-5.2-1.7-7.5-0.9l0,0l-0.4,0.2c0,0-0.1,0-0.1,0l-8,3.1l7.2,3.5
		c0,0.1-0.1,0.3-0.1,0.4L206,190.4c-1.8,8.3,1.8,17.9,8.1,21.5l217,125.3l-0.8,9.2l8.8-3.4c3-1.4,5.3-4.5,6.3-8.9l36.2-164.9
		C483.4,161,479.8,151.3,473.5,147.7z"/>
	<path class="st2" d="M473.5,147.7L251.1,19.3c-2.6-1.5-5.2-1.7-7.5-0.9l0,0l-0.4,0.2c0,0-0.1,0-0.1,0l-8,3.1l7.2,3.5
		c0,0.1-0.1,0.3-0.1,0.4l-23.9,108.7L327.1,219l153.4-62.4C479,152.8,476.6,149.5,473.5,147.7z"/>
	<path class="st3" d="M465.1,173.1l16.9-7.2c0.3-6.6-2.4-13.3-6.9-16.9l-26.8,11.3L465.1,173.1z"/>
	<path class="st4" d="M422.6,345.6L200.2,217.2c-6.3-3.6-9.9-13.3-8.1-21.5l36.2-164.9c1.8-8.3,8.4-12,14.7-8.4l222.4,128.4
		c6.3,3.6,9.9,13.3,8.1,21.5l-36.2,164.9C435.4,345.5,428.9,349.2,422.6,345.6z"/>
	<path class="st5" d="M417.7,333.3L208.6,212.6c-5.8-3.3-9.1-12.1-7.4-19.7l33.1-150.9c1.7-7.5,7.7-11,13.4-7.7l209.1,120.7
		c5.8,3.3,9.1,12.1,7.4,19.7l-33.1,150.9C429.5,333.2,423.5,336.6,417.7,333.3z"/>
	<path class="st5" d="M417.7,333.3L208.6,212.6c-5.8-3.3-9.1-12.1-7.4-19.7l33.1-150.9c1.7-7.5,7.7-11,13.4-7.7l209.1,120.7
		c5.8,3.3,9.1,12.1,7.4,19.7l-33.1,150.9C429.5,333.2,423.5,336.6,417.7,333.3z"/>
	<path class="st6" d="M425.6,351.2l-30.4-4L199,233.9c-6.3-3.6-17.3-3.2-24.5,1l-139,80.2l-18.4-2.4v10.4l0,0
		c-0.1,2.4,1.3,4.7,4.2,6.4L243.7,458c6.3,3.6,17.3,3.2,24.5-1l151.4-87.4c4.1-2.4,6.1-5.4,6-8.3l0,0V351.2z"/>
	<path class="st6" d="M278.2,279.6l-13.9-8H111l-75.6,43.6l-18.4-2.4v10.4l0,0c-0.1,2.4,1.3,4.7,4.2,6.4L243.7,458
		c3.3,1.9,8,2.7,12.7,2.4L278.2,279.6z"/>
	<path class="st2" d="M25.2,313.8l-8.2-1.1v10.4l0,0c-0.1,2.4,1.3,4.7,4.2,6.4l3.9,2.3V313.8z"/>
	<path class="st2" d="M245.9,459c6,2.3,14.5,1.8,20.9-1.3v-23.3h-20.9V459z"/>
	<path class="st4" d="M243.7,447.5L21.3,319.2c-6.3-3.6-5.5-10,1.8-14.2l151.4-87.4c7.3-4.2,18.3-4.6,24.5-1L421.4,345
		c6.3,3.6,5.5,10-1.8,14.2l-151.4,87.4C261,450.7,250,451.2,243.7,447.5z"/>
	<g>
		<path class="st2" d="M115.9,276.7l-10.1-5.8c-0.8-0.5-0.7-1.3,0.2-1.8l11.9-6.9c0.9-0.5,2.3-0.6,3.2-0.1l10.1,5.8
			c0.8,0.5,0.7,1.3-0.2,1.8l-11.9,6.9C118.1,277.1,116.7,277.1,115.9,276.7z"/>
		<path class="st2" d="M131.4,285.6l-10.1-5.8c-0.8-0.5-0.7-1.3,0.2-1.8l11.9-6.9c0.9-0.5,2.3-0.6,3.2-0.1l10.1,5.8
			c0.8,0.5,0.7,1.3-0.2,1.8l-11.9,6.9C133.7,286,132.2,286.1,131.4,285.6z"/>
		<path class="st2" d="M147,294.6l-10.1-5.8c-0.8-0.5-0.7-1.3,0.2-1.8l11.9-6.9c0.9-0.5,2.3-0.6,3.2-0.1l10.1,5.8
			c0.8,0.5,0.7,1.3-0.2,1.8l-11.9,6.9C149.2,295,147.8,295.1,147,294.6z"/>
		<path class="st2" d="M168.5,287.2l-10.1-5.8c-0.8-0.5-0.7-1.3,0.2-1.8l10-5.8c0.9-0.5,2.3-0.6,3.2-0.1l10.1,5.8
			c0.8,0.5,0.7,1.3-0.2,1.8l-10,5.8C170.7,287.6,169.3,287.7,168.5,287.2z"/>
		<path class="st2" d="M184,296.2l-10.1-5.8c-0.8-0.5-0.7-1.3,0.2-1.8l10-5.8c0.9-0.5,2.3-0.6,3.2-0.1l10.1,5.8
			c0.8,0.5,0.7,1.3-0.2,1.8l-10,5.8C186.2,296.6,184.8,296.6,184,296.2z"/>
		<path class="st2" d="M199.5,305.1l-10.1-5.8c-0.8-0.5-0.7-1.3,0.2-1.8l10-5.8c0.9-0.5,2.3-0.6,3.2-0.1l10.1,5.8
			c0.8,0.5,0.7,1.3-0.2,1.8l-10,5.8C201.8,305.5,200.3,305.6,199.5,305.1z"/>
		<path class="st2" d="M215.1,314.1l-10.1-5.8c-0.8-0.5-0.7-1.3,0.2-1.8l10-5.8c0.9-0.5,2.3-0.6,3.2-0.1l10.1,5.8
			c0.8,0.5,0.7,1.3-0.2,1.8l-10,5.8C217.3,314.5,215.9,314.6,215.1,314.1z"/>
		<path class="st2" d="M230.6,323.1l-10.1-5.8c-0.8-0.5-0.7-1.3,0.2-1.8l10-5.8c0.9-0.5,2.3-0.6,3.2-0.1l10.1,5.8
			c0.8,0.5,0.7,1.3-0.2,1.8l-10,5.8C232.8,323.5,231.4,323.5,230.6,323.1z"/>
		<path class="st2" d="M246.1,332l-10.1-5.8c-0.8-0.5-0.7-1.3,0.2-1.8l10-5.8c0.9-0.5,2.3-0.6,3.2-0.1l10.1,5.8
			c0.8,0.5,0.7,1.3-0.2,1.8l-10,5.8C248.4,332.4,247,332.5,246.1,332z"/>
		<path class="st2" d="M261.7,341l-10.1-5.8c-0.8-0.5-0.7-1.3,0.2-1.8l10-5.8c0.9-0.5,2.3-0.6,3.2-0.1l10.1,5.8
			c0.8,0.5,0.7,1.3-0.2,1.8l-10,5.8C263.9,341.4,262.5,341.5,261.7,341z"/>
		<path class="st2" d="M277.2,350l-10.1-5.8c-0.8-0.5-0.7-1.3,0.2-1.8l10-5.8c0.9-0.5,2.3-0.6,3.2-0.1l10.1,5.8
			c0.8,0.5,0.7,1.3-0.2,1.8l-10,5.8C279.4,350.4,278,350.4,277.2,350z"/>
		<path class="st2" d="M292.8,359l-10.1-5.8c-0.8-0.5-0.7-1.3,0.2-1.8l10-5.8c0.9-0.5,2.3-0.6,3.2-0.1l10.1,5.8
			c0.8,0.5,0.7,1.3-0.2,1.8l-10,5.8C295,359.4,293.6,359.4,292.8,359z"/>
		<path class="st2" d="M308.3,367.9l-10.1-5.8c-0.8-0.5-0.7-1.3,0.2-1.8l10-5.8c0.9-0.5,2.3-0.6,3.2-0.1l10.1,5.8
			c0.8,0.5,0.7,1.3-0.2,1.8l-10,5.8C310.5,368.3,309.1,368.4,308.3,367.9z"/>
		<path class="st2" d="M191.4,282.9l-10.1-5.8c-0.8-0.5-0.7-1.3,0.2-1.8l10-5.8c0.9-0.5,2.3-0.6,3.2-0.1l10.1,5.8
			c0.8,0.5,0.7,1.3-0.2,1.8l-10,5.8C193.6,283.4,192.2,283.4,191.4,282.9z"/>
		<path class="st2" d="M175.6,273.8l-10.1-5.8c-0.8-0.5-0.7-1.3,0.2-1.8l10-5.8c0.9-0.5,2.3-0.6,3.2-0.1l10.1,5.8
			c0.8,0.5,0.7,1.3-0.2,1.8l-10,5.8C177.8,274.2,176.4,274.3,175.6,273.8z"/>
		<path class="st2" d="M159.8,264.7l-21.7-12.5c-0.8-0.5-0.7-1.3,0.2-1.8l10-5.8c0.9-0.5,2.3-0.6,3.2-0.1l21.7,12.5
			c0.8,0.5,0.7,1.3-0.2,1.8l-10,5.8C162,265.1,160.6,265.2,159.8,264.7z"/>
		<path class="st2" d="M170.8,253.6l-17.6-10.2c-0.8-0.5-0.7-1.3,0.2-1.8l10-5.8c0.9-0.5,2.3-0.6,3.2-0.1l17.6,10.2
			c0.8,0.5,0.7,1.3-0.2,1.8l-10,5.8C173.1,254,171.6,254.1,170.8,253.6z"/>
		<path class="st2" d="M206.9,291.9l-10.1-5.8c-0.8-0.5-0.7-1.3,0.2-1.8l10-5.8c0.9-0.5,2.3-0.6,3.2-0.1l10.1,5.8
			c0.8,0.5,0.7,1.3-0.2,1.8l-10,5.8C209.1,292.3,207.7,292.4,206.9,291.9z"/>
		<path class="st2" d="M222.4,300.9l-10.1-5.8c-0.8-0.5-0.7-1.3,0.2-1.8l10-5.8c0.9-0.5,2.3-0.6,3.2-0.1l10.1,5.8
			c0.8,0.5,0.7,1.3-0.2,1.8l-10,5.8C224.6,301.3,223.2,301.3,222.4,300.9z"/>
		<path class="st2" d="M238,309.9l-10.1-5.8c-0.8-0.5-0.7-1.3,0.2-1.8l10-5.8c0.9-0.5,2.3-0.6,3.2-0.1l10.1,5.8
			c0.8,0.5,0.7,1.3-0.2,1.8l-10,5.8C240.2,310.3,238.8,310.3,238,309.9z"/>
		<path class="st2" d="M253.5,318.8l-10.1-5.8c-0.8-0.5-0.7-1.3,0.2-1.8l10-5.8c0.9-0.5,2.3-0.6,3.2-0.1l10.1,5.8
			c0.8,0.5,0.7,1.3-0.2,1.8l-10,5.8C255.7,319.2,254.3,319.3,253.5,318.8z"/>
		<path class="st2" d="M269,327.8L259,322c-0.8-0.5-0.7-1.3,0.2-1.8l10-5.8c0.9-0.5,2.3-0.6,3.2-0.1l10.1,5.8
			c0.8,0.5,0.7,1.3-0.2,1.8l-10,5.8C271.3,328.2,269.8,328.3,269,327.8z"/>
		<path class="st2" d="M284.6,336.8l-10.1-5.8c-0.8-0.5-0.7-1.3,0.2-1.8l10-5.8c0.9-0.5,2.3-0.6,3.2-0.1l10.1,5.8
			c0.8,0.5,0.7,1.3-0.2,1.8l-10,5.8C286.8,337.2,285.4,337.2,284.6,336.8z"/>
		<path class="st2" d="M300.1,345.7l-10.1-5.8c-0.8-0.5-0.7-1.3,0.2-1.8l10-5.8c0.9-0.5,2.3-0.6,3.2-0.1l10.1,5.8
			c0.8,0.5,0.7,1.3-0.2,1.8l-10,5.8C302.3,346.1,300.9,346.2,300.1,345.7z"/>
		<path class="st2" d="M315.6,354.7l-10.1-5.8c-0.8-0.5-0.7-1.3,0.2-1.8l10-5.8c0.9-0.5,2.3-0.6,3.2-0.1L329,347
			c0.8,0.5,0.7,1.3-0.2,1.8l-10,5.8C317.9,355.1,316.5,355.2,315.6,354.7z"/>
		<path class="st2" d="M331.2,363.7l-10.1-5.8c-0.8-0.5-0.7-1.3,0.2-1.8l10-5.8c0.9-0.5,2.3-0.6,3.2-0.1l10.1,5.8
			c0.8,0.5,0.7,1.3-0.2,1.8l-10,5.8C333.4,364.1,332,364.1,331.2,363.7z"/>
		<path class="st2" d="M358.8,379.6l-22-12.7c-0.8-0.5-0.7-1.3,0.2-1.8l10-5.8c0.9-0.5,2.3-0.6,3.2-0.1l22,12.7
			c0.8,0.5,0.7,1.3-0.2,1.8l-10,5.8C361,380,359.6,380.1,358.8,379.6z"/>
		<path class="st2" d="M389.1,362.2l-18.5-10.7c-0.8-0.5-0.7-1.3,0.2-1.8l10-5.8c0.9-0.5,2.3-0.6,3.2-0.1l18.5,10.7
			c0.8,0.5,0.7,1.3-0.2,1.8l-10,5.8C391.3,362.6,389.9,362.6,389.1,362.2z"/>
		<path class="st2" d="M234.1,290.2l-10.1-5.8c-0.8-0.5-0.7-1.3,0.2-1.8l10-5.8c0.9-0.5,2.3-0.6,3.2-0.1l10.1,5.8
			c0.8,0.5,0.7,1.3-0.2,1.8l-10,5.8C236.3,290.6,234.9,290.6,234.1,290.2z"/>
		<path class="st2" d="M218.2,281l-10.1-5.8c-0.8-0.5-0.7-1.3,0.2-1.8l10-5.8c0.9-0.5,2.3-0.6,3.2-0.1l10.1,5.8
			c0.8,0.5,0.7,1.3-0.2,1.8l-10,5.8C220.4,281.4,219,281.4,218.2,281z"/>
		<path class="st2" d="M202.3,271.8l-10.1-5.8c-0.8-0.5-0.7-1.3,0.2-1.8l10-5.8c0.9-0.5,2.3-0.6,3.2-0.1l10.1,5.8
			c0.8,0.5,0.7,1.3-0.2,1.8l-10,5.8C204.5,272.2,203.1,272.2,202.3,271.8z"/>
		<path class="st2" d="M186.3,262.6l-10.1-5.8c-0.8-0.5-0.7-1.3,0.2-1.8l10-5.8c0.9-0.5,2.3-0.6,3.2-0.1l10.1,5.8
			c0.8,0.5,0.7,1.3-0.2,1.8l-10,5.8C188.5,263,187.1,263,186.3,262.6z"/>
		<path class="st2" d="M249.6,299.1l-10.1-5.8c-0.8-0.5-0.7-1.3,0.2-1.8l10-5.8c0.9-0.5,2.3-0.6,3.2-0.1l10.1,5.8
			c0.8,0.5,0.7,1.3-0.2,1.8l-10,5.8C251.9,299.5,250.4,299.6,249.6,299.1z"/>
		<path class="st2" d="M265.2,308.1l-10.1-5.8c-0.8-0.5-0.7-1.3,0.2-1.8l10-5.8c0.9-0.5,2.3-0.6,3.2-0.1l10.1,5.8
			c0.8,0.5,0.7,1.3-0.2,1.8l-10,5.8C267.4,308.5,266,308.6,265.2,308.1z"/>
		<path class="st2" d="M280.7,317.1l-10.1-5.8c-0.8-0.5-0.7-1.3,0.2-1.8l10-5.8c0.9-0.5,2.3-0.6,3.2-0.1l10.1,5.8
			c0.8,0.5,0.7,1.3-0.2,1.8l-10,5.8C282.9,317.5,281.5,317.5,280.7,317.1z"/>
		<path class="st2" d="M296.2,326l-10.1-5.8c-0.8-0.5-0.7-1.3,0.2-1.8l10-5.8c0.9-0.5,2.3-0.6,3.2-0.1l10.1,5.8
			c0.8,0.5,0.7,1.3-0.2,1.8l-10,5.8C298.5,326.4,297.1,326.5,296.2,326z"/>
		<path class="st2" d="M311.8,335l-10.1-5.8c-0.8-0.5-0.7-1.3,0.2-1.8l10-5.8c0.9-0.5,2.3-0.6,3.2-0.1l10.1,5.8
			c0.8,0.5,0.7,1.3-0.2,1.8l-10,5.8C314,335.4,312.6,335.5,311.8,335z"/>
		<path class="st2" d="M327.3,344l-10.1-5.8c-0.8-0.5-0.7-1.3,0.2-1.8l10-5.8c0.9-0.5,2.3-0.6,3.2-0.1l10.1,5.8
			c0.8,0.5,0.7,1.3-0.2,1.8l-10,5.8C329.5,344.4,328.1,344.4,327.3,344z"/>
		<path class="st2" d="M342.9,352.9l-10.1-5.8c-0.8-0.5-0.7-1.3,0.2-1.8l10-5.8c0.9-0.5,2.3-0.6,3.2-0.1l10.1,5.8
			c0.8,0.5,0.7,1.3-0.2,1.8l-10,5.8C345.1,353.4,343.7,353.4,342.9,352.9z"/>
		<path class="st2" d="M358.4,361.9l-10.1-5.8c-0.8-0.5-0.7-1.3,0.2-1.8l10-5.8c0.9-0.5,2.3-0.6,3.2-0.1l10.1,5.8
			c0.8,0.5,0.7,1.3-0.2,1.8l-10,5.8C360.6,362.3,359.2,362.4,358.4,361.9z"/>
		<path class="st2" d="M373.9,370.9l-10.1-5.8c-0.8-0.5-0.7-1.3,0.2-1.8l10-5.8c0.9-0.5,2.3-0.6,3.2-0.1l10.1,5.8
			c0.8,0.5,0.7,1.3-0.2,1.8l-10,5.8C376.1,371.3,374.7,371.4,373.9,370.9z"/>
		<path class="st2" d="M225.9,268l-10.1-5.8c-0.8-0.5-0.7-1.3,0.2-1.8l10-5.8c0.9-0.5,2.3-0.6,3.2-0.1l10.1,5.8
			c0.8,0.5,0.7,1.3-0.2,1.8l-10,5.8C228.1,268.4,226.7,268.4,225.9,268z"/>
		<path class="st2" d="M210.5,259l-10.1-5.8c-0.8-0.5-0.7-1.3,0.2-1.8l10-5.8c0.9-0.5,2.3-0.6,3.2-0.1l10.1,5.8
			c0.8,0.5,0.7,1.3-0.2,1.8l-10,5.8C212.7,259.5,211.3,259.5,210.5,259z"/>
		<path class="st2" d="M195,250.1l-10.1-5.8c-0.8-0.5-0.7-1.3,0.2-1.8l10-5.8c0.9-0.5,2.3-0.6,3.2-0.1l10.1,5.8
			c0.8,0.5,0.7,1.3-0.2,1.8l-10,5.8C197.2,250.5,195.8,250.6,195,250.1z"/>
		<path class="st2" d="M179.5,241.2l-10.1-5.8c-0.8-0.5-0.7-1.3,0.2-1.8l10-5.8c0.9-0.5,2.3-0.6,3.2-0.1l10.1,5.8
			c0.8,0.5,0.7,1.3-0.2,1.8l-10,5.8C181.8,241.6,180.3,241.7,179.5,241.2z"/>
		<path class="st2" d="M195.4,232l-10.1-5.8c-0.8-0.5-0.7-1.3,0.2-1.8l3.3-1.9c0.9-0.5,2.3-0.6,3.2-0.1l10.1,5.8
			c0.8,0.5,0.7,1.3-0.2,1.8l-3.3,1.9C197.7,232.4,196.2,232.5,195.4,232z"/>
		<path class="st2" d="M215.6,243.7l-10.1-5.8c-0.8-0.5-0.7-1.3,0.2-1.8l3.3-1.9c0.9-0.5,2.3-0.6,3.2-0.1l10.1,5.8
			c0.8,0.5,0.7,1.3-0.2,1.8l-3.3,1.9C217.8,244.1,216.4,244.1,215.6,243.7z"/>
		<path class="st2" d="M231,252.6l-10.1-5.8c-0.8-0.5-0.7-1.3,0.2-1.8l3.3-1.9c0.9-0.5,2.3-0.6,3.2-0.1l10.1,5.8
			c0.8,0.5,0.7,1.3-0.2,1.8l-3.3,1.9C233.2,253,231.8,253,231,252.6z"/>
		<path class="st2" d="M246.4,261.4l-10.1-5.8c-0.8-0.5-0.7-1.3,0.2-1.8l3.3-1.9c0.9-0.5,2.3-0.6,3.2-0.1l10.1,5.8
			c0.8,0.5,0.7,1.3-0.2,1.8l-3.3,1.9C248.6,261.8,247.2,261.9,246.4,261.4z"/>
		<path class="st2" d="M261.8,270.3l-10.1-5.8c-0.8-0.5-0.7-1.3,0.2-1.8l3.3-1.9c0.9-0.5,2.3-0.6,3.2-0.1l10.1,5.8
			c0.8,0.5,0.7,1.3-0.2,1.8l-3.3,1.9C264,270.7,262.6,270.8,261.8,270.3z"/>
		<path class="st2" d="M347.7,320l-10.1-5.8c-0.8-0.5-0.7-1.3,0.2-1.8l3.3-1.9c0.9-0.5,2.3-0.6,3.2-0.1l10.1,5.8
			c0.8,0.5,0.7,1.3-0.2,1.8l-3.3,1.9C350,320.4,348.6,320.4,347.7,320z"/>
		<path class="st2" d="M363.1,328.8l-10.1-5.8c-0.8-0.5-0.7-1.3,0.2-1.8l3.3-1.9c0.9-0.5,2.3-0.6,3.2-0.1l10.1,5.8
			c0.8,0.5,0.7,1.3-0.2,1.8l-3.3,1.9C365.4,329.2,363.9,329.3,363.1,328.8z"/>
		<path class="st2" d="M378.5,337.7l-10.1-5.8c-0.8-0.5-0.7-1.3,0.2-1.8l3.3-1.9c0.9-0.5,2.3-0.6,3.2-0.1l10.1,5.8
			c0.8,0.5,0.7,1.3-0.2,1.8l-3.3,1.9C380.8,338.1,379.3,338.2,378.5,337.7z"/>
		<path class="st2" d="M393.9,346.6l-10.1-5.8c-0.8-0.5-0.7-1.3,0.2-1.8l3.3-1.9c0.9-0.5,2.3-0.6,3.2-0.1l10.1,5.8
			c0.8,0.5,0.7,1.3-0.2,1.8l-3.3,1.9C396.1,347,394.7,347.1,393.9,346.6z"/>
		<path class="st2" d="M241.5,276.9l-10.1-5.8c-0.8-0.5-0.7-1.3,0.2-1.8l10-5.8c0.9-0.5,2.3-0.6,3.2-0.1l10.1,5.8
			c0.8,0.5,0.7,1.3-0.2,1.8l-10,5.8C243.7,277.3,242.3,277.4,241.5,276.9z"/>
		<path class="st2" d="M257,285.9l-10.1-5.8c-0.8-0.5-0.7-1.3,0.2-1.8l10-5.8c0.9-0.5,2.3-0.6,3.2-0.1l10.1,5.8
			c0.8,0.5,0.7,1.3-0.2,1.8l-10,5.8C259.2,286.3,257.8,286.4,257,285.9z"/>
		<path class="st2" d="M272.5,294.9l-10.1-5.8c-0.8-0.5-0.7-1.3,0.2-1.8l10-5.8c0.9-0.5,2.3-0.6,3.2-0.1l10.1,5.8
			c0.8,0.5,0.7,1.3-0.2,1.8l-10,5.8C274.7,295.3,273.3,295.3,272.5,294.9z"/>
		<path class="st2" d="M288.1,303.9L278,298c-0.8-0.5-0.7-1.3,0.2-1.8l10-5.8c0.9-0.5,2.3-0.6,3.2-0.1l10.1,5.8
			c0.8,0.5,0.7,1.3-0.2,1.8l-10,5.8C290.3,304.3,288.9,304.3,288.1,303.9z"/>
		<path class="st2" d="M303.6,312.8l-10.1-5.8c-0.8-0.5-0.7-1.3,0.2-1.8l10-5.8c0.9-0.5,2.3-0.6,3.2-0.1l10.1,5.8
			c0.8,0.5,0.7,1.3-0.2,1.8l-10,5.8C305.8,313.2,304.4,313.3,303.6,312.8z"/>
		<path class="st2" d="M319.1,321.8l-10.1-5.8c-0.8-0.5-0.7-1.3,0.2-1.8l10-5.8c0.9-0.5,2.3-0.6,3.2-0.1l10.1,5.8
			c0.8,0.5,0.7,1.3-0.2,1.8l-10,5.8C321.4,322.2,319.9,322.3,319.1,321.8z"/>
		<path class="st2" d="M334.7,330.8l-10.1-5.8c-0.8-0.5-0.7-1.3,0.2-1.8l10-5.8c0.9-0.5,2.3-0.6,3.2-0.1l10.1,5.8
			c0.8,0.5,0.7,1.3-0.2,1.8l-10,5.8C336.9,331.2,335.5,331.2,334.7,330.8z"/>
		<path class="st2" d="M350.2,339.7l-10.1-5.8c-0.8-0.5-0.7-1.3,0.2-1.8l10-5.8c0.9-0.5,2.3-0.6,3.2-0.1l10.1,5.8
			c0.8,0.5,0.7,1.3-0.2,1.8l-10,5.8C352.4,340.1,351,340.2,350.2,339.7z"/>
		<path class="st2" d="M365.8,348.7l-10.1-5.8c-0.8-0.5-0.7-1.3,0.2-1.8l10-5.8c0.9-0.5,2.3-0.6,3.2-0.1l10.1,5.8
			c0.8,0.5,0.7,1.3-0.2,1.8l-10,5.8C368,349.1,366.6,349.2,365.8,348.7z"/>
		<path class="st2" d="M152.6,278L123,260.9c-0.8-0.5-0.7-1.3,0.2-1.8l10-5.8c0.9-0.5,2.3-0.6,3.2-0.1l29.6,17.1
			c0.8,0.5,0.7,1.3-0.2,1.8l-10,5.8C154.8,278.5,153.4,278.5,152.6,278z"/>
		<path class="st2" d="M343.5,388.2l-29.6-17.1c-0.8-0.5-0.7-1.3,0.2-1.8l10-5.8c0.9-0.5,2.3-0.6,3.2-0.1l29.6,17.1
			c0.8,0.5,0.7,1.3-0.2,1.8l-10,5.8C345.7,388.7,344.3,388.7,343.5,388.2z"/>
		<path class="st2" d="M281.4,372.2l-10.1-5.8c-0.8-0.5-0.7-1.3,0.2-1.8l11.9-6.9c0.9-0.5,2.3-0.6,3.2-0.1l10.1,5.8
			c0.8,0.5,0.7,1.3-0.2,1.8l-11.9,6.9C283.6,372.6,282.2,372.7,281.4,372.2z"/>
		<path class="st2" d="M168.5,307l-16.1-9.3c-0.8-0.5-0.7-1.3,0.2-1.8l11.9-6.9c0.9-0.5,2.3-0.6,3.2-0.1l16.1,9.3
			c0.8,0.5,0.7,1.3-0.2,1.8l-11.9,6.9C170.8,307.5,169.3,307.5,168.5,307z"/>
		<path class="st2" d="M266.4,363.5l-16.1-9.3c-0.8-0.5-0.7-1.3,0.2-1.8l11.9-6.9c0.9-0.5,2.3-0.6,3.2-0.1l16.1,9.3
			c0.8,0.5,0.7,1.3-0.2,1.8l-11.9,6.9C268.6,364,267.2,364,266.4,363.5z"/>
		<path class="st2" d="M191,320l-16.1-9.3c-0.8-0.5-0.7-1.3,0.2-1.8L187,302c0.9-0.5,2.3-0.6,3.2-0.1l16.1,9.3
			c0.8,0.5,0.7,1.3-0.2,1.8l-11.9,6.9C193.2,320.4,191.8,320.5,191,320z"/>
		<path class="st2" d="M190.2,302l70,40.4c0.9,0.5,0.9,1.3,0,1.8l-12.1,7c-0.9,0.5-2.3,0.5-3.1,0l-70-40.4L190.2,302z"/>
		<path class="st2" d="M324.8,388.5l11.2,6.5c0.7,0.4,0.6,1.1-0.2,1.5l-4.9,2.8c-0.8,0.4-1.9,0.5-2.6,0.1l-11.2-6.5
			c-0.7-0.4-0.6-1.1,0.2-1.5l4.9-2.8C323,388.1,324.1,388.1,324.8,388.5z"/>
		<path class="st2" d="M309.1,379.4l11.2,6.5c0.7,0.4,0.6,1.1-0.2,1.5l-4.9,2.8c-0.8,0.4-1.9,0.5-2.6,0.1l-11.2-6.5
			c-0.7-0.4-0.6-1.1,0.2-1.5l4.9-2.8C307.3,379.1,308.5,379,309.1,379.4z"/>
		<path class="st2" d="M293.6,370.4l11.2,6.5c0.7,0.4,0.6,1.1-0.2,1.5l-4.9,2.8c-0.8,0.4-1.9,0.5-2.6,0.1l-11.2-6.5
			c-0.7-0.4-0.6-1.1,0.2-1.5l4.9-2.8C291.8,370.1,292.9,370.1,293.6,370.4z"/>
		<path class="st2" d="M317.7,374.5l11.2,6.5c0.7,0.4,0.6,1.1-0.2,1.5l-4.9,2.8c-0.8,0.4-1.9,0.5-2.6,0.1l-11.2-6.5
			c-0.7-0.4-0.6-1.1,0.2-1.5l4.9-2.8C315.9,374.1,317,374.1,317.7,374.5z"/>
	</g>
</g>
<g>
	<path class="st7" d="M94,231.2c0,0,0.7,15.4,1.9,25.7c1.2,10.3,26.1-7.9,26.1-7.9v-11.8L94,231.2z"/>
	<g>
		<path class="st8" d="M107.3,422.8c0.4,0.9,6.8,8.8,13.3,10.8c2.8,0.9,4.7,1,5.9,0.8c1.2-0.1,2-1.4,1.6-2.6
			c-1.1-3.1-4.3-9.6-12.4-13.7C104.8,412.7,107.3,422.8,107.3,422.8z"/>
		<path class="st8" d="M105.2,425.8c0,0,2.4,5.7,3.2,10.5c0.5,2.9-1.1,6.7-2.5,9.2c-0.8,1.6-2.9,1.9-4.2,0.7
			c-2.1-1.9-4.8-5.2-5.2-10c-0.7-8,0-9.5,0-9.5L105.2,425.8z"/>
		<path class="st9" d="M89.6,328.5c0,0-0.8,10.2,0,21.4c0.8,11.2,3.9,63.8,4.4,76.4c0,0-0.3,3.8,7.1,3c7.4-0.8,6.8-5.1,6.8-5.1
			s10.4-0.1,10.7-6.3c0.3-6.1,10.7-73.2,10.7-97.3L89.6,328.5z"/>
		<g>
			<path class="st10" d="M133.2,276l5.1,7.9l17.5,21.2c0,0-0.6,2-2.8,2.5c-1.7,0.4-16.4-13.7-22.8-19.8c-1.7-1.6-2-4.2-0.7-6.2
				L133.2,276z"/>
			<path class="st9" d="M123.2,243.6c0,0,8.1-0.2,10.9,11.5c2.8,11.7,5,26.3,2.6,27.6c-7.4,3.7-12-0.6-12-0.6L123.2,243.6z"/>
			<path class="st11" d="M125.7,244.1c-1.4-0.6-2.9-0.7-4.4-0.2c-6.9,2-32.8,9.6-37.1,13.2c-4.9,4.2,7.4,27.9,7.2,35.7
				c-0.2,7.8-1.1,16.9-1.7,25.4c-0.7,8.5-1.6,13.1,5.3,16.7c6.9,3.6,18.7,3.8,27.6-3c8.8-6.7,7.2-11.3,6.9-16.2s-3.4-26-3.1-32
				c0,0,3.1-2.3,5.4-6.2c2.3-3.9-1.8-11.2-3.5-15.9c-1.7-4.7,1-10.1,0.4-13.9C128.4,245.7,127.1,244.7,125.7,244.1z"/>
			<path class="st9" d="M117.4,252.2c0.5,4.3-3.4,8.3-8.8,9c-5.4,0.7-10.2-2.2-10.7-6.5c-0.5-4.3,3.4-8.3,8.8-9
				C112,245,116.8,247.9,117.4,252.2z"/>
			<path class="st10" d="M114.6,252.6c0.4,3.1-2.4,5.9-6.3,6.4c-3.8,0.5-7.3-1.6-7.7-4.6c-0.4-3.1,2.4-5.9,6.3-6.4
				C110.8,247.4,114.2,249.5,114.6,252.6z"/>
			<path class="st10" d="M110.8,242.5c0,0-4.7-3.8-5.6-1.9s-1.7,10.3-1.7,10.3l9.3,2.5l-1.4-8.5C111.4,245,113.2,243.4,110.8,242.5z
				"/>
			<path class="st10" d="M125.3,233.4c-0.5,7.7-7,13.5-14.7,13c-7.7-0.5-13.5-7-13-14.7c0.5-7.7,7-13.5,14.7-13
				C119.9,219.2,125.8,225.7,125.3,233.4z"/>
			<path class="st12" d="M104.5,243.1c-0.1,0.4-0.2,0.9-0.2,1.4c0.9,4.8,8.2,6.9,8.2,6.9l-1.1-6.4c0,0,0.9-0.7,0.6-1.5
				C109.2,242.6,105.6,241.8,104.5,243.1z"/>
			<path class="st10" d="M125.3,233.4c-0.5,7.7-7,13.5-14.7,13c-7.7-0.5-13.5-7-13-14.7c0.5-7.7,7-13.5,14.7-13
				C119.9,219.2,125.8,225.7,125.3,233.4z"/>
			<polygon class="st10" points="77.3,291.3 78.8,328.5 84.2,329 87.8,295.6 			"/>
			<path class="st9" d="M95.1,288.2c-1.8-7.9-5.3-25.5-5.3-25.5l-1.5,17.4c1.8,5.2,3.3,9.9,3.2,12.7c-0.1,4.6-0.5,9.6-0.9,14.7l0,0
				C90.6,307.6,96.9,296.1,95.1,288.2z"/>
			<path class="st11" d="M85.2,256.4c0,0-4.3,1.7-6.8,15c-2.5,13.3-4.3,26.7,0.1,28.4c4.4,1.7,8,3,9.3-0.6
				c1.3-3.6,2.1-20.8,2.2-26.9C90.3,266.1,90.5,257.6,85.2,256.4z"/>
			<path class="st10" d="M154.5,303.5c0,0,2.4,0.9,4.1,2.7c1.4,1.5,2.2,2.8,2.8,3.7c1.4,2,2.5,6.4,1.7,6.9c-0.8,0.5-5.5-7.3-6.3-5.5
				c-0.8,1.8,0,3.5-1,3.5c-1,0-4.4-7.9-7-10.3C146,302.2,154.5,303.5,154.5,303.5z"/>
		</g>
		<path class="st8" d="M108,424.2c0,0,1.3,0,3-0.3l0,0l2-81.6L108,424.2z"/>
	</g>
	<g>
		<path class="st3" d="M100.1,380.1l-2.9-3.8l-30.4-17.6c-1-0.6-1.8-2.1-1.8-3.4l0-24.9l-1.7-2.3l1.6-1l0,0c0.3-0.2,0.7-0.2,1.2,0.1
			l34.4,19.9c1,0.6,1.8,2.1,1.8,3.4l0,27.1c0,0.7-0.3,1.2-0.6,1.4l0,0L100.1,380.1z"/>
		<path class="st3" d="M79.1,365.8l-2.2-1.2L65.1,344l0-13.5l-1.7-2.3l1.6-1l0,0c0.3-0.2,0.7-0.2,1.2,0.1l34.4,19.9
			c0.5,0.3,1,0.9,1.3,1.5L79.1,365.8z"/>
		<path class="st13" d="M64.1,329.2l-0.8-1l1.6-1l0,0c0.3-0.2,0.7-0.2,1.2,0.1l0.6,0.4L64.1,329.2z"/>
		<path class="st13" d="M100.9,347.5c0.8,0.6,1.4,1.8,1.4,2.9l-3.4,1.9l-1.6-2.8L100.9,347.5z"/>
		<path class="st2" d="M99,348.2l-34.4-19.9c-1-0.6-1.8,0-1.8,1.3l0,27.1c0,1.3,0.8,2.8,1.8,3.4L98.9,380c1,0.6,1.8,0,1.8-1.3
			l0-27.1C100.7,350.3,99.9,348.8,99,348.2z"/>
	</g>
	<path class="st10" d="M78.8,328.1c0,0-1.4,8.7-1.2,11.4c0.2,2.8,1.7,7.4,2.8,7.3c1.1-0.1,0-11.2,2-10.1c2,1.1,2.2,3,3.1,2.3
		c0.9-0.7-1.6-10.1-0.9-14.2C85.3,320.8,78.8,328.1,78.8,328.1z"/>
	<path class="st12" d="M116.8,233.8c7,2.5,8.3,1,8.4,0.9c0.1-0.4,0.1-0.8,0.1-1.3c0.1-1.5-0.1-3-0.5-4.4l-18.1-2.4
		C106.8,226.5,109.6,231.2,116.8,233.8z"/>
	<path class="st7" d="M125.8,219.6c-1.6-1.4-7.6-8.4-18.2-6.7c-6.6,1-12.2,5.5-13.5,15.9c-0.8,7,1.7,13.8,6.4,18.9
		c0.3-0.1,0.5-0.2,0.8-0.4c2.7-1.7,2.9-2.7,2.9-2.7l0.6-5.3c0-0.7-0.6-1.4-1.3-1.5c-0.6,0-1.3-0.3-1.9-1.2c-1.5-2-0.8-5.1,2.2-5.2
		c1.6-0.1,2.2-0.9,2.4-1.7c0.2-0.7,0.9-1.1,1.6-0.8c3.5,1.3,12,4,17.5,2.4C132.4,229.2,127.4,221,125.8,219.6z"/>
	<polygon class="st3" points="86.1,338.8 82.4,336.8 83.8,339 85.6,339.7 	"/>
</g>
<g>
	<g>
		<path class="st8" d="M183.4,453c0,0-4.6-2.3-7.4,1.1c-2.8,3.4-6.8,11.5-6.9,17c-0.1,5.5,4.3,5.1,7,3.8
			c2.6-1.3,10.4-12.5,10.8-14.7c0.5-2.2-0.6-5.2-1.3-5.7C184.9,453.9,183.4,453,183.4,453z"/>
		<path class="st14" d="M184.4,451.9l0.2,4.7c0,1-0.5,2-1.3,2.5c-0.8,0.5-2,0.8-3.5,0.5c-3.4-0.6-3.7-1.5-4-6.3
			C175.5,448.7,184.4,451.9,184.4,451.9z"/>
		<g>
			<path class="st8" d="M166.7,443.9c0,0-4.6-2.3-7.4,1.1c-2.8,3.4-6.8,11.5-6.9,17c-0.1,5.5,4.3,5.1,7,3.8
				c2.6-1.3,10.4-12.5,10.8-14.7c0.5-2.2-0.6-5.2-1.3-5.7C168.2,444.8,166.7,443.9,166.7,443.9z"/>
			<path class="st14" d="M167.7,442.8l0.2,4.7c0,1-0.5,2-1.3,2.5c-0.8,0.5-2,0.8-3.5,0.5c-3.4-0.6-3.7-1.5-4-6.3
				C158.8,439.6,167.7,442.8,167.7,442.8z"/>
			<path class="st9" d="M208.4,356c-1.4-22-23.8,3.2-23.8,3.2l-15.4,15.1l-13.8,15.2c-2.7,3-4,7-3.4,11l5.6,42.6
				c0.3,2.1,2.1,3.7,4.2,3.6c0.6,0,1.3-0.1,2.1-0.2c5-0.8,4.6-5.5,4.6-5.5l-1-39.9l29.1-17.5C196.5,383.6,209.8,378,208.4,356z"/>
		</g>
		<path class="st9" d="M225.1,364.4c-1.4-22-23.8,3.2-23.8,3.2l-15.4,15.1l-13.8,15.2c-2.7,3-4,7-3.4,11l5.6,42.6
			c0.3,2.1,2.1,3.7,4.2,3.6c0.6,0,1.3-0.1,2.1-0.2c5-0.8,4.6-5.5,4.6-5.5l-1-39.9l29.1-17.5C213.2,392,226.5,386.4,225.1,364.4z"/>
		<path class="st11" d="M211.8,293.8c17,7.1,16.7,17.1,16.7,17.1s-3.3,36.9-2.2,61.5c0.5,10.3-54.7,11.1-46.5-16.4
			c9.7-32.4,6.1-58.6,10.6-62.6C195,289.6,207.4,292,211.8,293.8z"/>
		<path class="st10" d="M217.3,302.8c-0.9,3.5-5.4,5.3-10.1,4.1c-4.7-1.2-7.8-5-6.9-8.4c0.9-3.5,5.4-5.3,10.1-4.1
			S218.2,299.3,217.3,302.8z"/>
		<path class="st9" d="M210.1,308c-1,0-2-0.1-3.1-0.4c-5.1-1.3-8.5-5.6-7.5-9.4c0.5-1.9,2-3.5,4.1-4.3c2.1-0.8,4.6-0.9,7-0.3
			c5.1,1.3,8.5,5.6,7.5,9.4l0,0C217.3,306.1,214,308,210.1,308z M207.5,294.7c-1.2,0-2.3,0.2-3.3,0.6c-1.7,0.7-2.8,1.8-3.1,3.2
			c-0.8,3,2.1,6.4,6.3,7.5c4.2,1.1,8.3-0.5,9.1-3.5c0.8-3-2.1-6.4-6.3-7.5C209.3,294.9,208.4,294.7,207.5,294.7z"/>
		<path class="st10" d="M205,293.1c0,0,0.1,0.7-0.1,6.1c-0.1,1.7,5.8,3.3,7.4,1.7c1.5-1.5,0.9-3.1,1.3-8.9
			C213.9,286.2,205,293.1,205,293.1z"/>
		<path class="st12" d="M213.5,292c0,0-1.5,5.4-8.7,7.4l0.1-4.9L213.5,292z"/>
		<path class="st10" d="M218.1,278.4c1.8,7-2.4,14.2-9.4,16c-7,1.8-14.2-2.4-16-9.4c-1.8-7,2.4-14.2,9.4-16
			C209.1,267.2,216.3,271.4,218.1,278.4z"/>
		<path class="st12" d="M208.4,282.2c0,0-7.2,3.1-12.2,3.1c-5,0-3.9-4.1-3.9-4.1l14.8-2.1L208.4,282.2z"/>
		<path class="st7" d="M194.7,283c0,0,6.3-2.7,11.8-1.6c1.3,0.3,2.5,1,3.3,2c0.3,0.3,0.6,0.6,1,0.7c1,0.2,2.6-3.8,4.5-3.9
			c1.9-0.1,3.2,1.3,1.6,3.7c-1.6,2.5-1,5.3-0.3,5.7c0.7,0.4,8.3-5.4,1.6-18.7c-6.7-13.3-23.7-6.1-26.4-3.4c0,0-2.8,2.4-5.1,0.3
			C186.8,267.8,184.2,286.8,194.7,283z"/>
		<path class="st10" d="M219,337.9v10c0,1.1-0.5,2.2-1.3,3l-20.5,18.7l2.3,3.6l26.9-18.5c1.3-0.9,2.1-2.3,2.2-3.9l1.9-18.5
			L219,337.9z"/>
		<path class="st11" d="M227.1,306c0,0,6.2,9.3,8.5,33.9c0,0-10.6,3.4-16.6,1.5C212.9,339.4,227.1,306,227.1,306z"/>
		<path class="st9" d="M217.8,317.8c0,0-2.4,13-2.6,19.1c0,1.7,1,3.2,2.6,3.8l0,0V317.8z"/>
	</g>
	<g>
		<path class="st3" d="M212.5,382.5l-4.5-0.6L178.8,365c-0.9-0.5-2.6-0.5-3.7,0.2l-20.7,11.9l-2.7-0.4v2.7l0,0c0,0.4,0.2,0.7,0.6,1
			l33.1,19.1c0.9,0.5,2.6,0.5,3.7-0.2l22.5-13c0.6-0.4,0.9-0.8,0.9-1.2l0,0V382.5z"/>
		<path class="st15" d="M190.6,371.8l-2.1-1.2h-22.8l-11.2,6.5l-2.7-0.4v2.7l0,0c0,0.4,0.2,0.7,0.6,1l33.1,19.1
			c0.5,0.3,1.2,0.4,1.9,0.4L190.6,371.8z"/>
		<path class="st16" d="M152.9,376.9l-1.2-0.2v2.7l0,0c0,0.4,0.2,0.7,0.6,1l0.6,0.3V376.9z"/>
		<path class="st3" d="M185.8,399.7c0.9,0.3,2.2,0.3,3.1-0.2v-4.6h-3.1V399.7z"/>
		<path class="st5" d="M185.4,396.8l-33.1-19.1c-0.9-0.5-0.8-1.5,0.3-2.1l22.5-13c1.1-0.6,2.7-0.7,3.7-0.2l33.1,19.1
			c0.9,0.5,0.8,1.5-0.3,2.1l-22.5,13C188,397.3,186.4,397.4,185.4,396.8z"/>
		<path class="st17" d="M184.9,393.9l-27.5-15.9c-0.8-0.4-0.7-1.2,0.2-1.8l12.1-6.8c0.9-0.5,2.3-0.6,3-0.1l27.5,15.9
			c0.8,0.4,0.7,1.2-0.2,1.8l-12.1,6.8C187,394.3,185.6,394.4,184.9,393.9z"/>
	</g>
	<path class="st10" d="M176.4,362l-0.3,2.3c-0.3,1.9-0.2,3.9,0.1,5.9l0.4,2c0.2,1.1,1.1,2,2.3,2.2l0,0c0.9,0.2,1.7-0.5,1.8-1.4
		l0.5-4.9c0,0,1.2,1.6,1.9,1.6c0.6,0-0.7-4.9-2-7.7C179.7,359.3,176.4,362,176.4,362z"/>
	<path class="st10" d="M187.6,325.7l-3.6,7c-0.8,1.7-1.3,3.5-1.5,5.3l-1.5,24l-4.7-0.1l-2.1-27c-0.1-0.8,0-1.7,0.1-2.5l2.4-13.7
		L187.6,325.7z"/>
	<g>
		<path class="st3" d="M184.3,398.7l-2.8-3.6l-29.2-16.9c-0.9-0.5-1.7-2-1.7-3.2l0-23.9l-1.7-2.2l1.6-0.9l0,0
			c0.3-0.2,0.7-0.2,1.1,0.1l33.1,19.2c0.9,0.5,1.7,2,1.7,3.2l0,26c0,0.7-0.2,1.2-0.6,1.4l0,0L184.3,398.7z"/>
		<path class="st2" d="M164.1,385l-2.1-1.2L150.7,364l0-13l-1.7-2.2l1.6-0.9l0,0c0.3-0.2,0.7-0.2,1.1,0.1l33.1,19.2
			c0.5,0.3,0.9,0.8,1.2,1.5L164.1,385z"/>
		<path class="st2" d="M149.7,349.8l-0.7-1l1.6-0.9l0,0c0.3-0.2,0.7-0.2,1.1,0.1l0.6,0.3L149.7,349.8z"/>
		<path class="st18" d="M185.1,367.3c0.7,0.6,1.3,1.7,1.4,2.8l-3.2,1.9l-1.5-2.7L185.1,367.3z"/>
		<path class="st5" d="M183.2,368l-33.1-19.2c-0.9-0.5-1.7,0-1.7,1.3l0,26c0,1.2,0.8,2.7,1.7,3.2l33.1,19.2c0.9,0.5,1.7,0,1.7-1.3
			l0-26C184.9,370,184.2,368.6,183.2,368z"/>
	</g>
	<path class="st10" d="M199.5,373.1l-0.5,1.1c-0.6,1.3-1.6,2.3-2.8,3.1l-3.3,2c-1,0.6-2.3,0.7-3.4,0.1c0,0-0.1,0-0.1-0.1
		c-1-0.7-1.1-2.2-0.3-3l3.4-3.5c0,0-1.9,1.5-2.5,0.9c-0.4-0.4,1.9-2.6,3.6-2.6c1.7-0.1,3.4-1.4,3.4-1.4L199.5,373.1z"/>
	<path class="st11" d="M190.8,293.5c0,0-12.6,13.7-17.7,26.3c0,0,4.3,7.8,14.8,10.8C198.5,333.6,190.8,293.5,190.8,293.5z"/>
	<path class="st9" d="M185.6,329.7l2-19.7l-4.8,18.5C183.7,328.9,184.6,329.3,185.6,329.7z"/>
</g>
<g>
	<g>
		<path class="st0" d="M124.7,177l-30.5-17.7c-2.6-1.5-2.3-4.1,0.7-5.8l29.1-16.9c3-1.7,7.5-1.9,10-0.4l30.5,17.7
			c2.6,1.5,2.3,4.1-0.7,5.8l-29.1,16.9C131.7,178.3,127.2,178.5,124.7,177z"/>
		<path class="st1" d="M175.6,120.6L175.6,120.6v-7.7l-40.7,0l0.3,0c-3.2-1.9-8.9-1.6-12.6,0.5l1.2-0.5l-40.7,0v8.2
			c-0.1,1.3,0.6,2.5,2.2,3.4l38.3,22.3c3.2,1.9,8.9,1.6,12.6-0.5l36.5-21.2C174.7,123.7,175.7,122.1,175.6,120.6z"/>
		<path class="st1" d="M129.3,111.7c-2.4,0.1-4.8,0.7-6.8,1.8l1.2-0.5l-40.7,0v8.2c-0.1,1.3,0.6,2.5,2.2,3.4l38.3,22.3
			c1.6,0.9,3.7,1.3,5.8,1.2L129.3,111.7z"/>
		<path class="st3" d="M87.7,112.9l-4.6,0v8.2c-0.1,1.3,0.6,2.5,2.2,3.4l2.4,1.4V112.9z"/>
		<path class="st3" d="M124.3,147.1c2.8,1.2,6.8,1.1,10.1-0.1v-10.7h-10.1V147.1z"/>
		<path class="st2" d="M123.5,138.6l-38.3-22.3c-3.2-1.9-2.8-5.1,0.9-7.3l36.5-21.2c3.7-2.2,9.4-2.4,12.6-0.5l38.3,22.3
			c3.2,1.9,2.8,5.1-0.9,7.3l-36.5,21.2C132.3,140.2,126.7,140.5,123.5,138.6z"/>
	</g>
	<g>
		<path class="st5" d="M130.9,108.7l-11.3-6.5c-1.5-0.9-1.5-2.3,0-3.1c1.5-0.9,3.9-0.9,5.4,0l11.3,6.5c1.5,0.9,1.5,2.3,0,3.1
			C134.8,109.6,132.4,109.6,130.9,108.7z"/>
	</g>
	<g>
		<path class="st5" d="M147.3,118.3l-6.8-4c-1.5-0.9-1.5-2.3,0-3.1c1.5-0.9,3.9-0.9,5.4,0l6.8,4c1.5,0.9,1.5,2.3,0,3.1
			C151.2,119.2,148.8,119.2,147.3,118.3z"/>
	</g>
	<g>
		<path class="st5" d="M115.1,112.8l-6.8-4c-1.5-0.9-1.5-2.3,0-3.1c1.5-0.9,3.9-0.9,5.4,0l6.8,4c1.5,0.9,1.5,2.3,0,3.1
			C119.1,113.6,116.6,113.6,115.1,112.8z"/>
	</g>
</g>
<g>
	<path class="st17" d="M297.3,107.1l-13.5-7.8c-1.3-0.7-2-2.5-1.6-4l0,0c0.3-1.5,1.6-2.1,2.9-1.4l13.5,7.8c1.3,0.7,2,2.5,1.6,4l0,0
		C299.8,107.2,298.6,107.8,297.3,107.1z"/>
	<path class="st17" d="M329.5,125.7l-19.9-11.5c-1.3-0.7-2-2.5-1.6-4l0,0c0.3-1.5,1.6-2.1,2.9-1.4l19.9,11.5c1.3,0.7,2,2.5,1.6,4
		l0,0C332,125.8,330.7,126.4,329.5,125.7z"/>
	<path class="st17" d="M273.8,170.1l-13.5-7.8c-1.3-0.7-2-2.5-1.6-4l0,0c0.3-1.5,1.6-2.1,2.9-1.4l13.5,7.8c1.3,0.7,2,2.5,1.6,4l0,0
		C276.3,170.2,275,170.9,273.8,170.1z"/>
	<path class="st17" d="M302.4,186.7l-19.9-11.5c-1.3-0.7-2-2.5-1.6-4l0,0c0.3-1.5,1.6-2.1,2.9-1.4l19.9,11.5c1.3,0.7,2,2.5,1.6,4
		l0,0C305,186.8,303.7,187.4,302.4,186.7z"/>
	<path class="st17" d="M257.5,96.9L249,92c-1.3-0.7-2-2.5-1.6-4l0,0c0.3-1.5,1.6-2.1,2.9-1.4l8.4,4.9c1.3,0.7,2,2.5,1.6,4l0,0
		C260,97,258.7,97.6,257.5,96.9z"/>
	<path class="st17" d="M283.5,124.6l-25.8-14.9c-1.3-0.7-2-2.5-1.6-4l0,0c0.3-1.5,1.6-2.1,2.9-1.4l25.8,14.9c1.3,0.7,2,2.5,1.6,4
		l0,0C286,124.7,284.7,125.4,283.5,124.6z"/>
	<path class="st17" d="M260.9,137.2l-8.4-4.9c-1.3-0.7-2-2.5-1.6-4l0,0c0.3-1.5,1.6-2.1,2.9-1.4l8.4,4.9c1.3,0.7,2,2.5,1.6,4l0,0
		C263.5,137.3,262.2,137.9,260.9,137.2z"/>
	<path class="st17" d="M306.8,214.7l-22.5-13c-1.3-0.7-2-2.5-1.6-4l0,0c0.3-1.5,1.6-2.1,2.9-1.4l22.5,13c1.3,0.7,2,2.5,1.6,4l0,0
		C309.3,214.8,308,215.5,306.8,214.7z"/>
	<path class="st17" d="M252.7,158l-5.4-3.1c-1.3-0.7-2-2.5-1.6-4l0,0c0.3-1.5,1.6-2.1,2.9-1.4l5.4,3.1c1.3,0.7,2,2.5,1.6,4l0,0
		C255.2,158.1,253.9,158.7,252.7,158z"/>
	<path class="st17" d="M248.8,181.3l-6.7-3.9c-1.3-0.7-2-2.5-1.6-4l0,0c0.3-1.5,1.6-2.1,2.9-1.4l6.7,3.9c1.3,0.7,2,2.5,1.6,4l0,0
		C251.3,181.4,250.1,182,248.8,181.3z"/>
	<path class="st17" d="M275,196.4l-17.7-10.2c-1.3-0.7-2-2.5-1.6-4l0,0c0.3-1.5,1.6-2.1,2.9-1.4l17.7,10.2c1.3,0.7,2,2.5,1.6,4l0,0
		C277.5,196.5,276.2,197.1,275,196.4z"/>
	<path class="st17" d="M252.2,196l-12.7-7.4c-1.3-0.7-2-2.5-1.6-4l0,0c0.3-1.5,1.6-2.1,2.9-1.4l12.7,7.4c1.3,0.7,2,2.5,1.6,4l0,0
		C254.8,196.1,253.5,196.7,252.2,196z"/>
	<path class="st17" d="M326.1,226l-8.2-4.7c-1.3-0.7-2-2.5-1.6-4l0,0c0.3-1.5,1.6-2.1,2.9-1.4l8.2,4.7c1.3,0.7,2,2.5,1.6,4l0,0
		C328.7,226.1,327.4,226.7,326.1,226z"/>
	<path class="st17" d="M292.3,155.3l-22.5-13c-1.3-0.7-2-2.5-1.6-4l0,0c0.3-1.5,1.6-2.1,2.9-1.4l22.5,13c1.3,0.7,2,2.5,1.6,4l0,0
		C294.8,155.4,293.6,156,292.3,155.3z"/>
	<path class="st17" d="M294.4,143.7L255.1,121c-1.3-0.7-2-2.5-1.6-4l0,0c0.3-1.5,1.6-2.1,2.9-1.4l39.3,22.7c1.3,0.7,2,2.5,1.6,4l0,0
		C296.9,143.8,295.6,144.4,294.4,143.7z"/>
	<path class="st17" d="M272.4,156.6l-22.5-13c-1.3-0.7-2-2.5-1.6-4l0,0c0.3-1.5,1.6-2.1,2.9-1.4l22.5,13c1.3,0.7,2,2.5,1.6,4l0,0
		C275,156.7,273.7,157.3,272.4,156.6z"/>
	<path class="st17" d="M309.4,165.2l-8.2-4.7c-1.3-0.7-2-2.5-1.6-4l0,0c0.3-1.5,1.6-2.1,2.9-1.4l8.2,4.7c1.3,0.7,2,2.5,1.6,4l0,0
		C311.9,165.3,310.6,165.9,309.4,165.2z"/>
	<path class="st17" d="M390.2,160.7l-48.5-28c-1.3-0.7-2-2.5-1.6-4l0,0c0.3-1.5,1.6-2.1,2.9-1.4l48.5,28c1.3,0.7,2,2.5,1.6,4l0,0
		C392.8,160.8,391.5,161.5,390.2,160.7z"/>
	<path class="st17" d="M271.8,181.8l-27.1-15.6c-1.3-0.7-2-2.5-1.6-4l0,0c0.3-1.5,1.6-2.1,2.9-1.4l27.1,15.6c1.3,0.7,2,2.5,1.6,4
		l0,0C274.3,181.9,273,182.5,271.8,181.8z"/>
	<path class="st17" d="M271.5,92.2l-19.9-11.5c-1.3-0.7-2-2.5-1.6-4l0,0c0.3-1.5,1.6-2.1,2.9-1.4l19.9,11.5c1.3,0.7,2,2.5,1.6,4l0,0
		C274.1,92.3,272.8,92.9,271.5,92.2z"/>
	<path class="st17" d="M248.7,206.7l-23.1-13.3c-1.3-0.7-2-2.5-1.6-4v0c0.3-1.5,1.6-2.1,2.9-1.4l23.1,13.3c1.3,0.7,2,2.5,1.6,4l0,0
		C251.2,206.8,249.9,207.5,248.7,206.7z"/>
</g>
<g>
	<path class="st17" d="M403.5,293.1l-13.5-7.8c-1.3-0.7-2-2.5-1.6-4l0,0c0.3-1.5,1.6-2.1,2.9-1.4l13.5,7.8c1.3,0.7,2,2.5,1.6,4l0,0
		C406.1,293.2,404.8,293.9,403.5,293.1z"/>
	<path class="st17" d="M413.2,247.6l-25.8-14.9c-1.3-0.7-2-2.5-1.6-4l0,0c0.3-1.5,1.6-2.1,2.9-1.4l25.8,14.9c1.3,0.7,2,2.5,1.6,4
		l0,0C415.8,247.7,414.5,248.4,413.2,247.6z"/>
	<path class="st17" d="M390.7,260.2l-8.4-4.9c-1.3-0.7-2-2.5-1.6-4l0,0c0.3-1.5,1.6-2.1,2.9-1.4l8.4,4.9c1.3,0.7,2,2.5,1.6,4l0,0
		C393.2,260.3,391.9,260.9,390.7,260.2z"/>
	<path class="st17" d="M382.5,281l-5.4-3.1c-1.3-0.7-2-2.5-1.6-4l0,0c0.3-1.5,1.6-2.1,2.9-1.4l5.4,3.1c1.3,0.7,2,2.5,1.6,4l0,0
		C385,281.1,383.7,281.7,382.5,281z"/>
	<path class="st17" d="M422.1,278.3l-22.5-13c-1.3-0.7-2-2.5-1.6-4l0,0c0.3-1.5,1.6-2.1,2.9-1.4l22.5,13c1.3,0.7,2,2.5,1.6,4l0,0
		C424.6,278.4,423.3,279,422.1,278.3z"/>
	<path class="st17" d="M424.1,266.7L384.8,244c-1.3-0.7-2-2.5-1.6-4l0,0c0.3-1.5,1.6-2.1,2.9-1.4l39.3,22.7c1.3,0.7,2,2.5,1.6,4l0,0
		C426.7,266.8,425.4,267.4,424.1,266.7z"/>
	<path class="st17" d="M402.2,279.6l-22.5-13c-1.3-0.7-2-2.5-1.6-4l0,0c0.3-1.5,1.6-2.1,2.9-1.4l22.5,13c1.3,0.7,2,2.5,1.6,4l0,0
		C404.7,279.7,403.4,280.3,402.2,279.6z"/>
	<path class="st17" d="M401.5,304.8l-27.1-15.6c-1.3-0.7-2-2.5-1.6-4l0,0c0.3-1.5,1.6-2.1,2.9-1.4l27.1,15.6c1.3,0.7,2,2.5,1.6,4
		l0,0C404.1,304.9,402.8,305.5,401.5,304.8z"/>
</g>
<g>
	<g>
		<path class="st0" d="M348.3,538.7l-31.7-18.5c-2.7-1.5-2.3-4.2,0.7-6l30.2-17.6c3.1-1.8,7.8-2,10.4-0.4l31.7,18.5
			c2.7,1.5,2.3,4.2-0.7,6l-30.2,17.6C355.7,540,351,540.2,348.3,538.7z"/>
		<path class="st1" d="M399.4,481.4L399.4,481.4v-7.7l-40.7,0l0.3,0c-3.2-1.9-8.9-1.6-12.6,0.5l1.2-0.5l-40.7,0v8.2
			c-0.1,1.3,0.6,2.5,2.2,3.4l38.3,22.3c3.2,1.9,8.9,1.6,12.6-0.5l36.5-21.2C398.5,484.5,399.6,482.9,399.4,481.4z"/>
		<path class="st1" d="M353.2,472.5c-2.4,0.1-4.8,0.7-6.8,1.8l1.2-0.5l-40.7,0v8.2c-0.1,1.3,0.6,2.5,2.2,3.4l38.3,22.3
			c1.6,0.9,3.7,1.3,5.8,1.2L353.2,472.5z"/>
		<path class="st3" d="M311.5,473.7l-4.6,0v8.2c-0.1,1.3,0.6,2.5,2.2,3.4l2.4,1.4V473.7z"/>
		<path class="st3" d="M348.1,507.9c2.8,1.2,6.8,1.1,10.1-0.1v-10.7h-10.1V507.9z"/>
		<path class="st2" d="M347.3,499.4l-38.3-22.3c-3.2-1.9-2.8-5.1,0.9-7.3l36.5-21.2c3.7-2.2,9.4-2.4,12.6-0.5l38.3,22.3
			c3.2,1.9,2.8,5.1-0.9,7.3l-36.5,21.2C356.2,501.1,350.5,501.3,347.3,499.4z"/>
	</g>
	<g>
		<path class="st5" d="M354.4,470.7l-11.3-6.5c-1.5-0.9-1.5-2.3,0-3.1c1.5-0.9,3.9-0.9,5.4,0l11.3,6.5c1.5,0.9,1.5,2.3,0,3.1
			C358.4,471.6,356,471.6,354.4,470.7z"/>
	</g>
	<g>
		<path class="st5" d="M370.8,480.3l-6.8-4c-1.5-0.9-1.5-2.3,0-3.1c1.5-0.9,3.9-0.9,5.4,0l6.8,4c1.5,0.9,1.5,2.3,0,3.1
			C374.7,481.1,372.3,481.1,370.8,480.3z"/>
	</g>
	<g>
		<path class="st5" d="M338.7,474.7l-6.8-4c-1.5-0.9-1.5-2.3,0-3.1s3.9-0.9,5.4,0l6.8,4c1.5,0.9,1.5,2.3,0,3.1
			C342.6,475.6,340.2,475.6,338.7,474.7z"/>
	</g>
</g>
</svg>
